inDegrees=yes
name=ouput_greeting.mot
DataType=double
version=3
OpenSimVersion=4.5
endheader
time	pelvis_tilt	pelvis_list	pelvis_rotation	pelvis_tx	pelvis_ty	pelvis_tz	hip_flexion_r	hip_adduction_r	hip_rotation_r	knee_angle_r	knee_angle_r_beta	ankle_angle_r	subtalar_angle_r	mtp_angle_r	hip_flexion_l	hip_adduction_l	hip_rotation_l	knee_angle_l	knee_angle_l_beta	ankle_angle_l	subtalar_angle_l	mtp_angle_l	lumbar_extension	lumbar_bending	lumbar_rotation	arm_flex_r	arm_add_r	arm_rot_r	elbow_flex_r	pro_sup_r	wrist_flex_r	wrist_dev_r	arm_flex_l	arm_add_l	arm_rot_l	elbow_flex_l	pro_sup_l	wrist_flex_l	wrist_dev_l
0	1.103860424401902	-6.010373671528858	-166.0215686583266	0	0.93	0	0.02283368280079075	-6.108096631043915	-0.1491727781156441	0.736652320107067	0.01285700842832355	-1.088191956124893	0	0	0.0009267116096640535	6.082615661485861	-0.07189378258279429	0.698442301492564	0.01219011779625215	-1.088191956106309	0	0	0	0	0	0	0	0	0	0	0	0	0	0	0	0	0	0	0
0.0192307692307692	1.062483627765557	-6.017446025015702	-165.8431176961629	0	0.93	0	-0.04421108850174807	-6.393791946166668	-0.5044217105950159	0.6069691474781234	0.01059361008151629	-1.103096899523889	0	0	0.1553400096429179	6.136370808640019	-0.684684936563366	1.005991011278945	0.017557855392285	-1.103096899505378	0	0	0	0	0	0	0	0	0	0	0	0	0	0	0	0	0	0	0
0.0384615384615385	1.048310980112344	-5.994221162470599	-165.9785019424075	0	0.93	0	-0.1378813989353871	-6.106156363531619	-1.394696959853051	0.7532378570948202	0.01314648065697114	-1.179332219064277	-3.063344920581061e-18	4.945399515501039e-23	1.681502209428631	6.087831167544431	-4.418673175299508	2.94721109497205	0.05143853735856958	-1.179332219042162	2.858919296067641e-18	-4.78618153332231e-24	1.478922754120782e-25	-1.450380897268473e-23	1.399205796417786e-26	8.099105017395731e-18	5.436703117506012e-21	4.33941011456646e-15	2.759142219747312e-14	8.921367238361828e-15	4.26717798141021e-24	-1.097470513728524e-23	-6.498726338480196e-15	1.589809254470511e-15	-5.910373299665591e-16	3.235378155152815e-14	3.606923656368522e-14	1.983281136647251e-23	1.269192023249796e-24
0.0576923076923077	1.047642260122767	-6.016340152728033	-165.8436002778957	0	0.93	0	-0.03075115950628574	-6.090097073286909	-0.3616676534250737	0.7999676453679547	0.01396206932109718	-1.1951970380534	0	0	1.794251386200792	6.175773001948718	-4.568379183780598	3.133155206763282	0.05468387433402297	-1.195197038031379	0	0	0	0	0	0	0	0	0	0	0	0	0	0	0	0	0	0	0
0.0769230769230769	1.038263289146701	-5.980196362692393	-165.8441321046786	0	0.93	0	-0.1724591273596782	-5.988675241666502	0.1558228423970927	0.5815212130187748	0.01014945983736893	-1.214981007558882	0	0	1.390343811238262	6.162488569318787	-2.55430043475589	2.299459953205253	0.0401331472011864	-1.214981007535578	0	0	0	0	0	0	0	0	0	0	0	0	0	0	0	0	0	0	0
0.0961538461538462	1.025464073201263	-5.879872351159436	-165.9281150631541	0	0.93	0	-0.2131479879641467	-5.919649544216758	-0.1375972703221689	0.6270162078730026	0.01094349729075309	-1.223910627842843	0	0	1.4082551167919	6.162748763377639	-2.158682020866341	2.27637205888699	0.03973018742798022	-1.223910627820649	0	0	0	0	0	0	0	0	0	0	0	0	0	0	0	0	0	0	0
0.1153846153846154	0.9846360262718237	-5.829192999620261	-165.7264279157178	0	0.93	0	-0.238652518487138	-5.855817235067203	-1.203378741003385	0.7982015144735463	0.01393124452196855	-1.255812961051381	0	0	-0.0547701516236993	5.850491844252045	-0.3015990281176516	0.7306917739563762	0.01275297727277692	-1.255812961029257	0	0	0	0	0	0	0	0	0	2.005785115271998e-39	0	0	0	0	0	2.104714535737113e-38	3.849515758503573e-39	0	0
0.1346153846153846	1.021609696190452	-5.862104417059119	-165.6281482532711	5.331437541843713e-38	0.93	1.235068417304874e-26	-0.2429989528820229	-5.847151975201863	-0.5294267594572576	0.5970692729949799	0.01042082467625126	-1.317350971124503	4.630017781800284e-15	-3.953982922924858e-16	1.250820575691534	6.126268429141973	-3.505936236180505	2.763194825464192	0.0482268475784202	-1.317350971102756	1.217985448190482e-14	6.066900630514614e-15	1.333308734474807e-23	-1.227491854776732e-17	-9.921441681481534e-16	1.232838493524552e-16	8.00162442555678e-17	-1.449096681253692e-16	1.474820365589055e-14	1.406568029325096e-14	-2.815149230166065e-21	1.512427664569232e-21	9.018940745448227e-16	2.865358527133094e-16	2.803947403392007e-15	1.819335307914553e-14	0	7.408890678318229e-22	1.288334516810911e-20
0.1538461538461539	1.016087342756427	-5.876307143544494	-165.7531939757204	-8.336373620337674e-43	0.93	-1.930278002997375e-31	-0.1184819579529983	-5.889630438248668	0.04194507311060851	0.6613105172527609	0.01154204590412744	-1.336410447363963	-2.734586250190058e-20	2.706344626261497e-24	0.80407654962193	6.200753223715175	-1.821123630607992	1.561097410830396	0.02724628976334899	-1.336410447355698	9.439647614517605e-21	-4.450342988606812e-23	1.460369156331113e-25	-1.791264176830306e-25	-2.316933361191132e-23	-6.342027252891484e-15	-1.911958635754536e-14	1.052394223906984e-13	1.419368194901741e-15	1.648540594412239e-14	8.844196010343079e-18	-4.927707544241074e-19	1.112900512922674e-14	2.081830743976913e-16	-1.209132552930199e-14	4.370706594187361e-15	4.723297719864033e-15	3.151501526325894e-18	3.771342206931631e-20
0.1730769230769231	1.043740398896346	-5.891914017890527	-165.9563851793373	-2.977277641079123e-49	0.93	-6.893843069458162e-38	-0.1562328907601375	-5.998892331880501	-0.2718377820261103	0.6169877049514696	0.01076846689572646	-1.389206160309775	-3.195871508202084e-16	-5.784385132967388e-18	1.481592098022907	6.056910142085187	-3.880151273890664	2.826962710135209	0.04933980712296147	-1.389206160303345	-1.221195191111573e-16	-7.333664118914662e-17	-1.781897796758853e-25	1.45198994407762e-17	-1.653346259753694e-25	2.47737515335159e-15	-1.48438306184648e-19	2.888394985528036e-14	0	1.999526724360653e-15	-1.323316440984167e-18	-2.063758612400065e-17	-1.339033200781031e-13	8.625449315838185e-15	1.55854359032799e-14	0	4.901045638291862e-16	-3.250626244028436e-18	9.621831192410043e-18
0.1923076923076923	1.025147206562016	-5.828944985759145	-165.7961690128924	0	0.93	0	-0.09338447323242365	-5.711795946743321	-0.7830074032456891	0.6543759157593325	0.0114210142757534	-1.430494144679303	0	0	2.238375285379219	6.110042662474497	-5.686868309255392	3.945611741199826	0.06886391588928337	-1.43049414467028	0	0	0	0	0	0	0	0	0	0	0	0	0	0	0	0	0	0	0
